<svg width="24" height="24" viewBox="0 0 24 24" fill="none" xmlns="http://www.w3.org/2000/svg">
<rect width="24" height="24" rx="12" fill="black"/>
<path d="M16.7062 6.93565C16.7056 6.91 16.6999 6.88473 16.6893 6.86136C16.6787 6.838 16.6634 6.81701 16.6445 6.79968C16.6256 6.78234 16.6034 6.769 16.5792 6.76047C16.555 6.75194 16.5293 6.74838 16.5037 6.75002C9.74622 7.2544 8.4806 12.2381 8.24435 14.2894C8.98502 13.1889 10.9664 11.1895 11.0025 11.2013C11.0392 11.1689 11.0872 11.1521 11.1362 11.1546C11.1852 11.1571 11.2312 11.1786 11.2645 11.2146C11.2978 11.2506 11.3157 11.2982 11.3144 11.3472C11.3131 11.3962 11.2927 11.4428 11.2575 11.4769C11.235 11.4975 8.22585 14.8664 8.19368 15.1163C7.79352 15.6975 7.4914 16.3404 7.29935 17.0194C7.29353 17.0433 7.29251 17.0682 7.29633 17.0925C7.30015 17.1169 7.30875 17.1402 7.32162 17.1612C7.33449 17.1822 7.35139 17.2004 7.37134 17.2149C7.39129 17.2293 7.41389 17.2397 7.43786 17.2454C7.46183 17.2511 7.48669 17.252 7.511 17.248C7.53531 17.2441 7.5586 17.2353 7.57953 17.2223C7.60047 17.2094 7.61862 17.1924 7.63296 17.1723C7.6473 17.1523 7.65755 17.1296 7.6631 17.1056C7.84166 16.4767 8.12227 15.8812 8.49372 15.3431C13.7831 15.1725 15.6468 10.9238 15.6656 10.8806C15.6775 10.8521 15.6822 10.8211 15.6793 10.7904C15.6763 10.7596 15.6659 10.7301 15.6488 10.7043C15.6318 10.6786 15.6087 10.6574 15.5815 10.6427C15.5543 10.628 15.524 10.6202 15.4931 10.62H14.6456L16.1268 9.82127C16.1615 9.80321 16.1892 9.77421 16.2056 9.73877C16.7212 8.6869 16.7062 7.0069 16.7062 6.93565Z" fill="white"/>
</svg>
